<svg id="Capa_1" data-name="Capa 1" xmlns="http://www.w3.org/2000/svg" viewBox="0 0 256 207.29"><defs><style>.cls-1{fill:#ffee8b}</style></defs><path class="cls-1" d="m255.28 2.14.72 134.85c-.1 6.61-1.16 17.97-7.23 30.29a70.225 70.225 0 0 1-12.49 17.74c-3.81 3.83-9.57 8.8-17.51 13.09a75.004 75.004 0 0 1-21.75 7.71c-6.11 1.15-20.44 3.6-36.98-2.57-13.91-5.19-22.64-13.96-26.89-18.93 1.19-1.73 2.37-3.59 3.51-5.58 5.55-9.71 8.23-19.24 9.54-27.12 1.31 2.72 3.38 6.39 6.61 10.21 2.37 2.8 7.59 9.21 16.46 12.53 12.87 4.82 24.05 1.76 27.47.68 3.27-1.04 17.86-6.06 25.15-20.91 3.31-6.73 3.92-13.06 3.94-17.09l.42-104.02 29.04-30.89Z"/><path class="cls-1" d="m220.32 93.85-36.48-.06c-3.2.06-17.62.7-29.56 12.32-12.6 12.25-13.14 27.68-13.19 30.64-.22 14.02-1.33 24.77-9.61 39.81-.31.57-.77 1.4-1.38 2.39-11.35 18.42-36.63 28.73-59.62 28.32-18.4-.33-31.57-7.47-35.55-9.79-9.6-5.58-16.09-12.38-20-17.26-2.44-3.04-7.77-9.79-11.26-19.83C.9 152.44.53 146.01.26 136.74c-.9-31.45.93-55.8.83-80.98 0-.25 0-.79.03-1.47.7-17.66 15.16-31.1 20.16-35.73 1.52-1.41 3.61-3.33 6.61-5.52C45.82-.05 64.62-.16 70.51.04c5.01-.09 28.94 0 48.8 18.61 22.68 21.24 21.67 48.12 21.5 52.33a82.2 82.2 0 0 0-28.08 31.06c-.17-15.94.03-23.7.19-32.65.08-4.5-.45-9.62-2.9-16.22-.99-2.66-3.78-9.22-9.96-14.74-11.36-10.15-25.9-9.38-29.56-9.19-16.66.88-35.85 11.17-38.16 24.96-.17 1.02-.22 1.9-.23 2.56-.45 26.69-.91 53.37-1.36 80.06.11 2.6 1.21 21.11 16.86 32.72 10.8 8.01 22.29 8.05 25.61 8.01 2.54-.03 17.33-.46 28.68-12.67.09 0 8.56-7.78 10.6-28.12.59-5.93.72-6.6 1.76-13.21.14-.86 1.68-10.53 2.83-15.02 0 0 5.93-23.12 36.12-37.3 5.84-2.74 11.96-4.38 11.96-4.38 6.83-1.83 12.27-2.19 16.51-2.41 15.77-.82 31.87-.48 38.64-.3v29.72Z"/></svg>